<?xml version="1.0" encoding="UTF-8"?>
<svg xmlns="http://www.w3.org/2000/svg" xmlns:xlink="http://www.w3.org/1999/xlink" viewBox="0 0 1479.82 800">
  <defs>
    <style>
      .cls-1 {
        isolation: isolate;
      }

      .cls-2 {
        fill: #fff;
        mix-blend-mode: overlay;
        opacity: .3;
      }

      .cls-3 {
        fill: #333;
      }

      .cls-4 {
        fill: #d31027;
      }

      .cls-5 {
        fill: url(#linear-gradient);
      }
    </style>
    <linearGradient id="linear-gradient" x1="358" y1="-1.49" x2="358" y2="776.01" gradientUnits="userSpaceOnUse">
      <stop offset="0" stop-color="#93291e"/>
      <stop offset=".24" stop-color="#a22220"/>
      <stop offset="1" stop-color="#d31027"/>
    </linearGradient>
  </defs>
  <g class="cls-1">
    <g id="Layer_2" data-name="Layer 2">
      <g id="Logo">
        <g>
          <path class="cls-3" d="m900.71,575.8c-4.22,5.5-10.06,9.66-17.53,12.49-7.47,2.83-15.96,4.24-25.45,4.24s-18.41-2.21-25.94-6.64c-7.52-4.43-13.33-10.77-17.41-19.01-4.08-8.24-6.2-17.86-6.36-28.86v-9.12c0-17.61,4.21-31.36,12.65-41.26,8.43-9.9,20.2-14.85,35.3-14.85,12.97,0,23.27,3.22,30.9,9.65,7.63,6.43,12.22,15.68,13.77,27.74h-19.85c-2.24-14.03-10.38-21.05-24.41-21.05-9.07,0-15.97,3.26-20.69,9.8-4.72,6.53-7.16,16.12-7.32,28.75v8.96c0,12.58,2.65,22.35,7.96,29.31,5.31,6.96,12.69,10.44,22.13,10.44,10.35,0,17.72-2.35,22.09-7.04v-22.81h-24.01v-15.37h44.18v44.66Zm72.27-53.71c-2.56-.43-5.2-.64-7.92-.64-8.91,0-14.92,3.42-18.01,10.25v59.23h-19.45v-86.61h18.57l.48,9.69c4.69-7.52,11.21-11.29,19.53-11.29,2.77,0,5.07.37,6.88,1.12l-.08,18.25Zm68.19,68.84c-.85-1.65-1.6-4.35-2.24-8.08-6.19,6.46-13.77,9.69-22.73,9.69s-15.8-2.48-21.29-7.44c-5.5-4.96-8.25-11.1-8.25-18.41,0-9.23,3.43-16.32,10.29-21.25,6.86-4.93,16.66-7.4,29.42-7.4h11.93v-5.68c0-4.48-1.25-8.07-3.76-10.76s-6.32-4.04-11.45-4.04c-4.43,0-8.06,1.11-10.89,3.32s-4.24,5.03-4.24,8.44h-19.45c0-4.75,1.57-9.19,4.72-13.33,3.15-4.13,7.43-7.38,12.85-9.73,5.42-2.35,11.46-3.52,18.13-3.52,10.14,0,18.22,2.55,24.25,7.64,6.03,5.1,9.13,12.26,9.29,21.49v39.06c0,7.79,1.09,14.01,3.28,18.65v1.36h-19.85Zm-21.37-14.01c3.84,0,7.46-.93,10.85-2.8,3.39-1.87,5.94-4.37,7.64-7.52v-16.33h-10.49c-7.2,0-12.62,1.25-16.25,3.76-3.63,2.51-5.44,6.06-5.44,10.65,0,3.73,1.24,6.71,3.72,8.92,2.48,2.21,5.8,3.32,9.97,3.32Zm140.71-28.42c0,13.4-3.04,24.08-9.13,32.06-6.08,7.98-14.25,11.97-24.49,11.97-9.5,0-17.1-3.12-22.81-9.37v41.06h-19.45v-119.91h17.93l.8,8.81c5.71-6.94,13.47-10.41,23.29-10.41,10.57,0,18.85,3.94,24.85,11.81,6,7.87,9,18.8,9,32.78v1.2Zm-19.37-1.68c0-8.64-1.72-15.5-5.16-20.57-3.44-5.07-8.36-7.61-14.77-7.61-7.95,0-13.66,3.28-17.13,9.85v38.42c3.52,6.72,9.28,10.09,17.29,10.09,6.19,0,11.03-2.49,14.53-7.48,3.49-4.99,5.24-12.55,5.24-22.69Zm61.55-33.06c6.35-7.36,14.38-11.05,24.09-11.05,18.46,0,27.83,10.54,28.1,31.62v56.59h-19.45v-55.87c0-5.98-1.29-10.2-3.88-12.69-2.59-2.48-6.39-3.72-11.4-3.72-7.79,0-13.61,3.47-17.45,10.41v61.87h-19.45v-122.95h19.45v45.79Zm176.32,21.93c0,11.05-1.75,20.61-5.24,28.7-3.49,8.08-8.39,14.5-14.69,19.25l20.01,15.61-13.13,11.85-24.81-19.61c-3.26.69-6.75,1.04-10.49,1.04-9.39,0-17.78-2.31-25.17-6.92-7.39-4.61-13.1-11.19-17.13-19.73-4.03-8.54-6.07-18.38-6.12-29.54v-6.56c0-11.37,2.01-21.4,6.04-30.1,4.03-8.7,9.71-15.35,17.05-19.97,7.34-4.61,15.73-6.92,25.17-6.92s18.08,2.28,25.41,6.84c7.34,4.56,13.01,11.13,17.01,19.69,4,8.57,6.03,18.53,6.08,29.9v6.48Zm-20.33-6.08c0-13.13-2.45-23.08-7.36-29.86-4.91-6.78-11.85-10.17-20.81-10.17s-15.52,3.43-20.45,10.29c-4.94,6.86-7.46,16.53-7.57,29.02v6.8c0,12.59,2.47,22.44,7.4,29.54,4.94,7.1,11.86,10.65,20.77,10.65s15.94-3.41,20.77-10.25c4.83-6.83,7.24-16.81,7.24-29.94v-6.08Zm67.71,45.14h52.91v16.17h-73.16v-116.54h20.25v100.37Z"/>
          <path class="cls-4" d="m810.17,209.7h71.39c34.22,0,55.46,6.2,67.56,15.64,18.29,14.16,26.55,35.7,26.55,59.59,0,16.82-4.72,29.8-10.92,39.53-7.38,11.51-18,18.88-28.32,23.31l45.14,80.24h-57.53l-56.94-105.32h9.14c14.16,0,26.26-1.18,33.63-5.9,6.78-4.43,12.39-14.75,12.39-26.85s-5.61-20.65-12.98-25.37c-6.19-3.84-15.04-5.9-22.71-5.9h-20.65v169.33h-55.76v-218.3Zm357.54,218.3h-48.97v-17.7c-8.85,15.93-29.21,23.3-48.38,23.3-51.92,0-82.31-40.71-82.31-87.62,0-53.69,38.65-87.32,82.31-87.32,26.85,0,41.89,12.98,48.38,23.01v-17.41h48.97v163.73Zm-130.69-81.13c0,15.04,11.21,41.01,40.71,41.01,17.41,0,28.03-8.26,34.22-18.29,4.13-6.49,6.19-13.57,6.79-20.95.59-7.38-.89-14.75-4.13-21.54-5.31-11.21-16.52-22.71-37.17-22.71-28.03,0-40.42,23.6-40.42,42.18v.3Zm161.36-137.18h48.97v37.17h-48.97v-37.17Zm0,54.58h48.97v163.73h-48.97v-163.73Zm79.35-54.58h48.97v218.3h-48.97v-218.3Zm148.97,100.6c-.29-3.54-.88-12.39-15.34-12.39-10.32,0-13.86,6.49-13.86,10.91,0,7.38,12.1,12.39,25.07,16.23,27.73,7.67,57.23,15.93,57.23,51.33s-30.39,57.23-66.67,57.23c-24.78,0-62.25-11.21-66.67-54.28h48.68c2.06,15.05,16.52,15.05,18.59,15.05,8.26,0,17.11-4.72,17.11-12.69,0-11.21-12.1-12.68-43.37-24.78-21.24-6.79-38.94-20.65-38.94-42.78,0-33.93,29.5-55.46,63.43-55.46,21.54,0,58.71,8.56,62.84,51.63h-48.09Z"/>
        </g>
        <g>
          <path class="cls-5" d="m314.74,788.41L43.26,631.67c-26.77-15.46-43.26-44.02-43.26-74.94V243.26c0-30.91,16.49-59.48,43.26-74.94L314.74,11.59c26.77-15.46,59.76-15.46,86.53,0l271.47,156.73c26.77,15.46,43.26,44.02,43.26,74.94v313.47c0,30.91-16.49,59.48-43.26,74.94l-271.47,156.73c-26.77,15.46-59.76,15.46-86.53,0Zm-175.08-212.39l175.08,101.08c26.77,15.46,59.76,15.46,86.53,0l175.08-101.08c26.77-15.46,43.26-44.02,43.26-74.94v-202.17c0-30.91-16.49-59.48-43.26-74.94l-175.08-101.08c-26.77-15.46-59.76-15.46-86.53,0l-175.08,101.08c-26.77,15.46-43.27,44.02-43.27,74.94v202.17c0,30.91,16.49,59.48,43.27,74.94Z"/>
          <path class="cls-2" d="m716,243.26c0-30.91-16.49-59.48-43.26-74.94L401.27,11.59c-26.77-15.46-59.76-15.46-86.53,0L43.26,168.33C16.49,183.79,0,212.35,0,243.26v18.49c27.32,33.96,59.22,67.17,96.39,98.01v-60.85c0-30.91,16.49-59.48,43.26-74.94l175.08-101.08c26.77-15.46,59.76-15.46,86.53,0l175.08,101.08c26.77,15.46,43.26,44.02,43.26,74.94v202.17c0,9.52-1.58,18.81-4.52,27.57,32.29.12,65.9-1.07,100.91-3.71V243.26Z"/>
          <path class="cls-4" d="m444.21,591.12c-32.05,0-58.12-26.07-58.12-58.12,0-4.71.59-9.41,1.75-14.03l-144.58-83.48c-10.98,14.49-27.88,22.99-46.21,22.99-32.05,0-58.12-26.07-58.12-58.12s26.07-58.12,58.12-58.12c18.33,0,35.23,8.5,46.21,22.99l144.57-83.48c-1.16-4.62-1.75-9.32-1.75-14.02,0-32.05,26.07-58.12,58.12-58.12s58.12,26.07,58.12,58.12-26.07,58.12-58.12,58.12c-16.85,0-32.92-7.45-43.92-20.17l-146.09,84.35c.65,3.48.97,6.93.97,10.32s-.33,6.85-.97,10.33l146.1,84.36c11-12.7,27.06-20.16,43.91-20.16,32.05,0,58.12,26.07,58.12,58.12s-26.07,58.12-58.12,58.12Zm0-89.29c-17.19,0-31.17,13.98-31.17,31.17s13.98,31.17,31.17,31.17,31.17-13.98,31.17-31.17-13.98-31.17-31.17-31.17Zm-247.15-132.64c-17.19,0-31.17,13.98-31.17,31.17s13.98,31.17,31.17,31.17,31.17-13.98,31.17-31.17-13.98-31.17-31.17-31.17Zm247.15-132.63c-17.19,0-31.17,13.98-31.17,31.17s13.98,31.17,31.17,31.17,31.17-13.98,31.17-31.17-13.98-31.17-31.17-31.17Z"/>
        </g>
      </g>
    </g>
  </g>
</svg>