<?xml version="1.0" encoding="utf-8"?>
<!-- Generator: Adobe Illustrator 26.0.3, SVG Export Plug-In . SVG Version: 6.00 Build 0)  -->
<svg version="1.1" id="Layer_1" xmlns="http://www.w3.org/2000/svg" xmlns:xlink="http://www.w3.org/1999/xlink" x="0px" y="0px"
	 viewBox="0 0 519 99" style="enable-background:new 0 0 519 99;" xml:space="preserve">
<style type="text/css">
	.st0{fill:#B41823;}
</style>
<g>
	<path class="st0" d="M78.5,10L42.4,0.2C42,0.1,41.5,0,41.1,0c-0.4,0-0.9,0.1-1.3,0.2L3.7,10c-1.1,0.3-2,0.9-2.7,1.8
		c-0.7,0.9-1,1.9-1,3.1v35.9c0.3,6.6,2.4,13.1,6.1,18.6c6.6,10.6,18.2,20.9,32.5,28.1c0.8,0.4,1.6,0.6,2.5,0.6s1.7-0.2,2.5-0.6
		c22.7-11.5,38.6-30.7,38.6-46.7V14.8c0-1.1-0.4-2.2-1-3.1C80.5,10.9,79.6,10.3,78.5,10z M44.4,82.6c-1,0.6-2.1,0.9-3.3,0.9
		c-1.2,0-2.3-0.3-3.3-0.9c-8.4-5-15.6-11.8-21-20c-2.4-3.5-3.9-7.6-4.2-11.9V23.5l26.9,7.3c1.1,0.3,2.2,0.3,3.3,0l26.9-7.3v27.3
		C69.7,59.2,60.9,72.3,44.4,82.6z"/>
	<path class="st0" d="M101.8,38.8h10.9l7.3,20l1,6.6h0.4l1-6.6l7.3-20h10.9L127,75.2h-11.2L101.8,38.8z"/>
	<path class="st0" d="M198.6,73.2c-1.1-1.1-1.9-2.4-2.4-3.8c-0.5-1.4-0.7-2.9-0.6-4.5V47.4h-6.5v-8.6h6.5V25.6l10.1,6v7.2h7.7v8.5
		h-7.7V64c0,0.5,0,1,0.2,1.5c0.2,0.5,0.4,0.9,0.8,1.2c0.8,0.7,1.8,1,2.9,1c1,0,1.9-0.2,2.9-0.5l0.5,0.3v7.8
		c-2.1,0.5-4.2,0.7-6.3,0.7c-1.5,0.1-2.9-0.1-4.3-0.5C201,74.9,199.7,74.2,198.6,73.2z"/>
	<path class="st0" d="M223.1,72.4c-1.2-1.3-2.1-2.8-2.6-4.4c-0.6-1.6-0.8-3.4-0.7-5.1V38.8h10.1v21.9c-0.1,0.9,0.1,1.7,0.3,2.5
		c0.3,0.8,0.7,1.6,1.3,2.2c0.6,0.6,1.3,1,2,1.3c0.8,0.3,1.6,0.4,2.4,0.4c1.7,0.1,3.4-0.4,4.8-1.4c1.5-1,2.8-2.4,3.6-4v-23h10.1v36.4
		h-10.1v-4.4c-1.5,1.7-3.3,3-5.3,3.9c-2,0.9-4.3,1.4-6.5,1.4c-1.7,0.1-3.4-0.2-5-0.9C225.7,74.6,224.3,73.6,223.1,72.4z"/>
	<path class="st0" d="M270,73.8c-2.8-1.5-5.1-3.8-6.6-6.6c-1.8-3.1-2.7-6.7-2.6-10.3c-0.1-3.6,0.8-7.2,2.6-10.3
		c1.5-2.7,3.8-4.9,6.6-6.4c2.7-1.4,5.7-2.2,8.7-2.2c3.9-0.1,7.7,1.2,10.7,3.7v-3h10.1v36.4h-10.1v-3.8c-1.5,1.5-3.2,2.6-5.1,3.4
		c-1.9,0.8-4,1.1-6.1,1C275.3,75.9,272.5,75.2,270,73.8z M287,65.1c0.9-0.8,1.5-1.8,2-2.9s0.7-2.3,0.6-3.5v-3.4
		c0-1.2-0.2-2.4-0.6-3.5c-0.4-1.1-1.1-2.1-2-2.9c-1.8-1.6-4.2-2.4-6.6-2.3c-2.4,0.1-4.7,1-6.5,2.7c-0.9,1-1.7,2.3-2.1,3.6
		c-0.5,1.3-0.7,2.8-0.6,4.2c-0.2,2.8,0.8,5.6,2.7,7.8c0.9,0.9,1.9,1.7,3.1,2.1c1.2,0.5,2.5,0.7,3.7,0.7
		C283.1,67.6,285.3,66.7,287,65.1L287,65.1z"/>
	<path class="st0" d="M308,22.1h10.2v53.1h-10.1L308,22.1L308,22.1z"/>
	<path class="st0" d="M329.5,73.1c-2.7-1.9-4.7-4.7-5.5-7.9l0.3-1l7.7-2.2c0.3,1.8,1.2,3.5,2.7,4.6c1.5,1.1,3.3,1.7,5.2,1.4
		c1.3,0.1,2.6-0.3,3.7-1c0.5-0.3,0.8-0.6,1.1-1.1c0.3-0.5,0.4-1,0.4-1.5c0-0.6-0.1-1.1-0.4-1.6c-0.3-0.5-0.7-0.9-1.2-1.1
		c-2-1-4.1-1.8-6.3-2.2c-3.2-0.6-6.2-2-8.7-4.1c-1-0.9-1.7-2-2.2-3.2c-0.5-1.2-0.7-2.5-0.6-3.9c-0.1-1.9,0.5-3.7,1.6-5.3
		c1.2-1.7,2.8-3,4.7-3.8c2.2-1,4.5-1.4,6.9-1.4c3.3-0.2,6.6,0.7,9.4,2.5c2.4,1.6,4.2,4.2,4.8,7.1l-0.4,0.8l-7.7,1.9
		c-0.2-1.5-1-2.9-2.1-3.8c-1.2-1-2.6-1.5-4.1-1.5c-1.1,0-2.1,0.3-3.1,0.8c-0.4,0.2-0.7,0.5-0.9,0.9c-0.2,0.4-0.3,0.8-0.3,1.2
		c0,0.6,0.2,1.1,0.6,1.6c0.4,0.5,0.8,0.8,1.4,1c2.4,1,4.9,1.9,7.5,2.5c3,0.7,5.8,2,8.2,4c0.9,0.9,1.6,2,2.1,3.2
		c0.5,1.2,0.7,2.5,0.6,3.7c0,2.2-0.6,4.3-1.8,6.1c-1.3,1.9-3,3.4-5.1,4.4c-2.4,1.1-5,1.6-7.7,1.6C336.3,76.2,332.6,75.2,329.5,73.1z
		"/>
	<path class="st0" d="M360.8,22.1H371v21.3c1.6-1.6,3.5-2.9,5.6-3.8c2.2-1,4.6-1.5,7.1-1.5c3.5-0.2,6.9,1,9.5,3.4
		c1.2,1.2,2.2,2.6,2.8,4.2c0.6,1.6,0.9,3.3,0.9,5v24.5h-10.1V53.3c0.1-0.9,0-1.7-0.3-2.6c-0.3-0.8-0.7-1.6-1.4-2.2
		c-0.6-0.6-1.3-1.1-2.2-1.4c-0.8-0.3-1.7-0.4-2.6-0.3c-1.8,0-3.5,0.5-5.1,1.4c-1.6,0.9-3,2.2-4.1,3.8v23.2H361V22.1H360.8z"/>
	<path class="st0" d="M405.1,33.1c-0.8-0.8-1.4-1.9-1.6-3c-0.2-1.1-0.1-2.3,0.3-3.4c0.4-1.1,1.2-2,2.2-2.7c1-0.7,2.1-1,3.3-1
		c0.8,0,1.6,0.1,2.3,0.4c0.7,0.3,1.4,0.8,1.9,1.4c1.1,1.1,1.7,2.6,1.7,4.2c0,1.6-0.6,3.1-1.7,4.2c-0.5,0.6-1.2,1-1.9,1.4
		c-0.7,0.3-1.5,0.5-2.3,0.4C407.8,34.8,406.3,34.2,405.1,33.1z M404.3,38.8c3.4,0.5,6.8,0.5,10.1,0v36.4h-10.1V38.8z"/>
	<path class="st0" d="M429.5,73.6c-2.8-1.5-5.1-3.9-6.6-6.7c-1.7-3.1-2.5-6.5-2.5-10c0-3.5,0.9-6.9,2.6-9.9c1.6-2.8,4-5,6.8-6.6
		c2.8-1.6,6-2.4,9.3-2.4c3.3-0.1,6.6,0.7,9.5,2.2c2.8,1.5,5.1,3.8,6.6,6.6c1.5,3.1,2.3,6.5,2.2,9.9v2.7h-27.3
		c0.1,1.1,0.4,2.2,0.9,3.2c0.5,1,1.2,1.9,2.1,2.7c1.8,1.6,4.2,2.3,6.6,2.2c1.8,0.2,3.6-0.3,5.1-1.3c1.5-1,2.6-2.5,3.1-4.2l8.6,0.9
		l0.5,0.9c-1.1,3.7-3.4,6.9-6.6,9.1c-3.3,2.1-7.1,3.1-10.9,3C435.9,76.1,432.5,75.3,429.5,73.6z M447.8,52.9c-0.1-1-0.4-2-0.8-2.9
		c-0.5-0.9-1.1-1.7-1.9-2.4c-1.7-1.3-3.7-2-5.8-2c-2.1,0-4.2,0.7-5.8,2c-1.6,1.3-2.7,3.2-3.1,5.3H447.8z"/>
	<path class="st0" d="M463.5,22.1h10.1v53.1h-10.1V22.1z"/>
	<path class="st0" d="M489.2,73.8c-2.8-1.5-5.1-3.8-6.6-6.6c-1.8-3.1-2.7-6.7-2.6-10.3c-0.1-3.6,0.8-7.2,2.6-10.3
		c1.6-2.7,3.9-4.9,6.7-6.4c2.7-1.4,5.7-2.2,8.7-2.2c3.9-0.1,7.7,1.2,10.7,3.7V22h10.1v53.2h-10.1v-3.8c-1.5,1.5-3.2,2.6-5.1,3.4
		c-1.9,0.8-4,1.1-6.1,1C494.6,75.9,491.8,75.2,489.2,73.8z M506.3,65.1c0.9-0.8,1.5-1.8,2-2.9c0.4-1.1,0.6-2.3,0.6-3.5v-3.4
		c0-1.2-0.2-2.4-0.6-3.5c-0.4-1.1-1.1-2.1-2-2.9c-1.8-1.6-4.2-2.4-6.6-2.3c-2.4,0.1-4.7,1-6.5,2.7c-0.9,1.1-1.6,2.3-2.1,3.6
		c-0.4,1.3-0.6,2.7-0.5,4.1c-0.1,2.8,0.8,5.6,2.7,7.8c0.9,0.9,1.9,1.7,3.1,2.1c1.2,0.5,2.4,0.7,3.7,0.7
		C502.4,67.6,504.6,66.7,506.3,65.1L506.3,65.1z"/>
	<path class="st0" d="M185.6,38.2c-0.5,0-1.1,0-1.6,0c-1.9,0-3.8,0.4-5.6,1.3c-1.7,0.9-3.2,2.2-4.4,3.7v-4.4h-10.2v36.5H174V53.3
		c0.9-2,2.2-3.7,4-4.9c1.6-1.1,3.4-1.7,5.4-1.7c0.8,0,1.6,0.1,2.4,0.4L185.6,38.2L185.6,38.2z"/>
	<path class="st0" d="M146.5,33.1c-0.6-0.5-1-1.2-1.3-1.9c-0.3-0.7-0.5-1.5-0.5-2.3s0.2-1.6,0.5-2.3c0.3-0.7,0.7-1.4,1.3-1.9
		c0.5-0.6,1.2-1,1.9-1.3c0.7-0.3,1.5-0.5,2.3-0.5c0.8,0,1.6,0.1,2.3,0.4c0.7,0.3,1.4,0.8,1.9,1.4c1.1,1.1,1.7,2.6,1.7,4.2
		c0,1.6-0.6,3.1-1.7,4.2c-0.5,0.6-1.2,1-1.9,1.4c-0.7,0.3-1.5,0.5-2.3,0.4C149.1,34.9,147.6,34.2,146.5,33.1z M145.5,38.8
		c3.4,0.5,6.8,0.5,10.1,0v36.4h-10.1L145.5,38.8z"/>
</g>
</svg>
