<?xml version="1.0" encoding="UTF-8"?>
<svg xmlns="http://www.w3.org/2000/svg" xmlns:xlink="http://www.w3.org/1999/xlink" viewBox="0 0 716 800">
  <defs>
    <style>
      .cls-1 {
        isolation: isolate;
      }

      .cls-2 {
        fill: #fff;
        mix-blend-mode: overlay;
        opacity: .3;
      }

      .cls-3 {
        fill: #d31027;
      }

      .cls-4 {
        fill: url(#linear-gradient);
      }
    </style>
    <linearGradient id="linear-gradient" x1="358" y1="-1.49" x2="358" y2="776.01" gradientUnits="userSpaceOnUse">
      <stop offset="0" stop-color="#93291e"/>
      <stop offset=".24" stop-color="#a22220"/>
      <stop offset="1" stop-color="#d31027"/>
    </linearGradient>
  </defs>
  <g class="cls-1">
    <g id="Layer_2" data-name="Layer 2">
      <g id="Logo">
        <g>
          <path class="cls-4" d="m314.74,788.41L43.26,631.67c-26.77-15.46-43.26-44.02-43.26-74.94V243.26c0-30.91,16.49-59.48,43.26-74.94L314.74,11.59c26.77-15.46,59.76-15.46,86.53,0l271.47,156.73c26.77,15.46,43.26,44.02,43.26,74.94v313.47c0,30.91-16.49,59.48-43.26,74.94l-271.47,156.73c-26.77,15.46-59.76,15.46-86.53,0Zm-175.08-212.39l175.08,101.08c26.77,15.46,59.76,15.46,86.53,0l175.08-101.08c26.77-15.46,43.26-44.02,43.26-74.94v-202.17c0-30.91-16.49-59.48-43.26-74.94l-175.08-101.08c-26.77-15.46-59.76-15.46-86.53,0l-175.08,101.08c-26.77,15.46-43.27,44.02-43.27,74.94v202.17c0,30.91,16.49,59.48,43.27,74.94Z"/>
          <path class="cls-2" d="m716,243.26c0-30.91-16.49-59.48-43.26-74.94L401.27,11.59c-26.77-15.46-59.76-15.46-86.53,0L43.26,168.33C16.49,183.79,0,212.35,0,243.26v18.49c27.32,33.96,59.22,67.17,96.39,98.01v-60.85c0-30.91,16.49-59.48,43.26-74.94l175.08-101.08c26.77-15.46,59.76-15.46,86.53,0l175.08,101.08c26.77,15.46,43.26,44.02,43.26,74.94v202.17c0,9.52-1.58,18.81-4.52,27.57,32.29.12,65.9-1.07,100.91-3.71V243.26Z"/>
          <path class="cls-3" d="m444.21,591.12c-32.05,0-58.12-26.07-58.12-58.12,0-4.71.59-9.41,1.75-14.03l-144.58-83.48c-10.98,14.49-27.88,22.99-46.21,22.99-32.05,0-58.12-26.07-58.12-58.12s26.07-58.12,58.12-58.12c18.33,0,35.23,8.5,46.21,22.99l144.57-83.48c-1.16-4.62-1.75-9.32-1.75-14.02,0-32.05,26.07-58.12,58.12-58.12s58.12,26.07,58.12,58.12-26.07,58.12-58.12,58.12c-16.85,0-32.92-7.45-43.92-20.17l-146.09,84.35c.65,3.48.97,6.93.97,10.32s-.33,6.85-.97,10.33l146.1,84.36c11-12.7,27.06-20.16,43.91-20.16,32.05,0,58.12,26.07,58.12,58.12s-26.07,58.12-58.12,58.12Zm0-89.29c-17.19,0-31.17,13.98-31.17,31.17s13.98,31.17,31.17,31.17,31.17-13.98,31.17-31.17-13.98-31.17-31.17-31.17Zm-247.15-132.64c-17.19,0-31.17,13.98-31.17,31.17s13.98,31.17,31.17,31.17,31.17-13.98,31.17-31.17-13.98-31.17-31.17-31.17Zm247.15-132.63c-17.19,0-31.17,13.98-31.17,31.17s13.98,31.17,31.17,31.17,31.17-13.98,31.17-31.17-13.98-31.17-31.17-31.17Z"/>
        </g>
      </g>
    </g>
  </g>
</svg>