<?xml version="1.0" encoding="UTF-8"?>
<svg id="Layer_2" data-name="Layer 2" xmlns="http://www.w3.org/2000/svg" viewBox="0 0 519 97.81">
  <g id="Layer_1-2" data-name="Layer 1">
    <path d="m78.31,9.97L42.3.17c-.43-.11-.87-.17-1.31-.17-.44,0-.88.06-1.31.17L3.69,9.97c-1.06.28-2,.91-2.66,1.79C.36,12.63,0,13.7,0,14.8v35.82c.27,6.62,2.38,13.03,6.09,18.51,6.54,10.58,18.15,20.83,32.39,28.06.78.4,1.64.61,2.52.61s1.74-.21,2.52-.61c22.67-11.52,38.48-30.6,38.48-46.58V14.8c0-1.1-.36-2.17-1.02-3.04-.67-.87-1.6-1.5-2.66-1.79Zm-33.57,72.44c-.99.6-2.12.92-3.27.92s-2.29-.32-3.27-.92c-8.39-5-15.56-11.81-21-19.93-2.43-3.5-3.88-7.6-4.19-11.86v-27.21l26.87,7.31c1.07.28,2.19.28,3.25,0l26.87-7.31v27.21c-.09,8.4-8.86,21.52-25.26,31.78Z"/>
    <path d="m102,38.88h10.58l7.46,20.32,1.02,6.68h.4l1-6.68,7.46-20.32h10.58l-13.55,36h-11.11l-13.84-36Z"/>
    <path d="m198.1,73.18c-1.09-1.13-1.93-2.47-2.46-3.94-.54-1.47-.75-3.04-.64-4.61v-16.75h-6v-9h7v-13.15l10,5.98v7.17h8v8h-8v16.72c-.04.49.02.99.18,1.46.16.47.43.89.77,1.24.79.67,1.78,1.01,2.79.99.95-.04,1.89-.21,2.79-.5l.47.31v8.16c-2.15.5-4.36.75-6.57.73-1.5.11-3.02-.07-4.45-.55-1.43-.48-2.75-1.24-3.88-2.24Z"/>
    <path d="m223.31,72.13c-1.14-1.27-2.02-2.76-2.59-4.39-.57-1.62-.81-3.34-.71-5.05v-23.81h10v21.91c-.06.86.05,1.73.32,2.55.27.82.69,1.58,1.24,2.23.57.56,1.24.99,1.97,1.28.73.29,1.52.43,2.3.4,1.66.06,3.29-.43,4.66-1.4,1.48-1,2.69-2.37,3.51-3.99v-22.99h10v36h-10v-4.33c-1.45,1.65-3.24,2.98-5.25,3.88-2,.9-4.17,1.36-6.37,1.34-1.68.07-3.36-.22-4.92-.85-1.56-.63-2.98-1.58-4.16-2.79Z"/>
    <path d="m269.82,73.51c-2.73-1.49-4.98-3.75-6.47-6.5-1.74-3.09-2.62-6.6-2.54-10.16-.1-3.58.78-7.12,2.54-10.22,1.51-2.68,3.75-4.87,6.47-6.3,2.66-1.4,5.62-2.14,8.62-2.17,3.84-.08,7.58,1.21,10.56,3.64v-2.92h10v36h-10v-3.73c-1.43,1.47-3.16,2.61-5.06,3.36-1.91.75-3.95,1.08-5.99.97-2.83.05-5.63-.63-8.12-1.97Zm17.18-8.58c.89-.81,1.56-1.8,2.01-2.9s.65-2.27.99-3.46v-3.4c-.35-1.18-.56-2.36-1.01-3.46-.44-1.1-1.11-2.09-1.96-2.92-1.84-1.58-4.21-2.42-6.64-2.35-2.43.07-4.74,1.05-6.49,2.74-.95,1.05-1.68,2.28-2.15,3.61-.47,1.34-.67,2.75-.58,4.17-.15,2.84.81,5.63,2.69,7.76.88.92,1.94,1.65,3.12,2.13,1.18.48,2.45.7,3.72.65,2.34-.02,4.59-.91,6.29-2.5v-.09Z"/>
    <path d="m307.91,21.88h10.09v53h-10V21.88h-.09Z"/>
    <path d="m329.46,73c-2.71-1.87-4.66-4.67-5.47-7.87l.31-.99,7.74-2.19c.27,1.83,1.23,3.49,2.7,4.63,1.46,1.13,3.31,1.65,5.15,1.44,1.3.08,2.59-.26,3.67-.99.46-.26.84-.63,1.1-1.09.26-.46.4-.97.39-1.5.03-.56-.11-1.11-.39-1.59-.28-.48-.7-.86-1.2-1.11-2-1.02-4.14-1.76-6.34-2.19-3.23-.56-6.24-1.97-8.75-4.08-.97-.89-1.73-1.99-2.23-3.22-.49-1.22-.71-2.54-.64-3.86-.05-1.88.5-3.72,1.57-5.26,1.18-1.67,2.79-3,4.66-3.83,2.16-.95,4.5-1.43,6.87-1.4,3.32-.15,6.61.72,9.42,2.5,2.44,1.64,4.15,4.17,4.77,7.06l-.39.81-7.74,1.88c-.22-1.49-.98-2.86-2.13-3.83-1.15-.97-2.62-1.49-4.13-1.45-1.08,0-2.15.27-3.08.81-.38.19-.7.49-.91.86-.21.37-.31.79-.29,1.22.03.58.24,1.14.6,1.6.36.46.84.8,1.39.98,2.42,1.03,4.91,1.87,7.46,2.5,3.02.68,5.84,2.04,8.24,3.99.91.89,1.62,1.97,2.08,3.15.46,1.19.67,2.46.61,3.73.01,2.16-.61,4.27-1.79,6.07-1.25,1.9-3.01,3.42-5.07,4.38-2.41,1.06-5.02,1.6-7.65,1.58-3.72.3-7.43-.67-10.52-2.76Z"/>
    <path d="m360.81,21.88h10.19v21.24c1.57-1.64,3.48-2.93,5.59-3.78,2.24-.99,4.66-1.5,7.11-1.49,3.52-.17,6.97,1.04,9.6,3.37,1.23,1.2,2.2,2.64,2.83,4.23.64,1.59.93,3.3.87,5.01v24.41h-10v-21.91c.1-.86,0-1.74-.3-2.56-.29-.82-.77-1.57-1.4-2.19-.63-.62-1.39-1.09-2.23-1.39-.84-.3-1.74-.41-2.63-.32-1.84,0-3.64.48-5.23,1.38-1.68.94-3.11,2.24-4.2,3.79v23.2h-10V21.88h-.19Z"/>
    <path d="m405.15,32.99c-.82-.84-1.37-1.89-1.6-3.04-.22-1.15-.1-2.34.34-3.42.45-1.08,1.2-2.01,2.16-2.67.97-.66,2.1-1.02,3.27-1.04.78-.02,1.56.13,2.28.44.72.31,1.37.77,1.89,1.35,1.08,1.12,1.69,2.62,1.69,4.19s-.61,3.06-1.69,4.19c-.53.58-1.17,1.04-1.89,1.35-.72.31-1.5.46-2.28.44-1.56-.09-3.04-.73-4.18-1.8Zm-1.15,5.47c3.32.48,6.68.48,10,0v36.42h-10v-36.42Z"/>
    <path d="m429.07,73.94c-2.79-1.54-5.07-3.86-6.56-6.68-1.67-3.05-2.52-6.49-2.47-9.97-.04-3.46.85-6.87,2.58-9.86,1.65-2.77,4.01-5.04,6.85-6.57,2.83-1.58,6.01-2.4,9.25-2.39,3.31-.07,6.59.68,9.54,2.19,2.78,1.51,5.06,3.79,6.56,6.57,1.53,3.09,2.29,6.5,2.19,9.95v2.7h-27.34c.08,1.13.38,2.23.88,3.24.5,1.01,1.2,1.91,2.05,2.65,1.82,1.55,4.17,2.34,6.56,2.19,1.8.15,3.6-.32,5.1-1.33,1.5-1.01,2.61-2.51,3.15-4.24l8.55.9.5.88c-1.12,3.67-3.43,6.86-6.56,9.07-3.27,2.06-7.07,3.1-10.93,2.98-3.44.17-6.86-.62-9.88-2.28Zm18.7-21.07c-.08-1.02-.37-2.02-.85-2.93-.48-.91-1.14-1.71-1.93-2.35-1.67-1.29-3.71-2-5.82-2s-4.15.7-5.82,2c-1.63,1.33-2.72,3.21-3.08,5.28h17.49Z"/>
    <path d="m464,21.88h10v53h-10V21.88Z"/>
    <path d="m489.71,73.5c-2.73-1.51-4.98-3.78-6.46-6.55-1.74-3.12-2.62-6.66-2.54-10.24-.1-3.61.78-7.17,2.54-10.31,1.54-2.72,3.82-4.93,6.57-6.35,2.66-1.42,5.61-2.17,8.62-2.18,3.84-.08,7.58,1.22,10.56,3.67v-19.65h10v53h-10v-3.76c-1.43,1.48-3.16,2.63-5.06,3.39-1.91.75-3.95,1.09-5.99.98-2.87.06-5.7-.62-8.23-1.99Zm16.29-8.57c1.13-.81,1.81-1.8,2.26-2.89.45-1.1.65-2.28.74-3.46v-3.4c-.11-1.18-.32-2.36-.76-3.46-.45-1.1-1.12-2.09-1.97-2.91-1.84-1.58-4.21-2.42-6.64-2.35-2.43.07-4.74,1.05-6.48,2.74-.92,1.06-1.62,2.29-2.07,3.62-.44,1.33-.62,2.74-.51,4.14-.15,2.84.82,5.63,2.69,7.78.88.92,1.94,1.65,3.12,2.13,1.18.48,2.45.7,3.72.65,2.29-.08,4.47-.96,5.89-2.5v-.09Z"/>
    <path d="m185.91,37.88c-.55-.05-1.1-.05-1.65,0-2-.04-3.97.4-5.75,1.27-1.73.94-3.26,2.19-4.51,3.68v-3.95h-10v36h10v-21.91c.88-1.96,2.29-3.65,4.07-4.89,1.61-1.11,3.52-1.7,5.49-1.69.83,0,1.65.14,2.44.39v-8.91h-.09Z"/>
    <path d="m146.52,32.99c-.56-.54-1.01-1.19-1.31-1.91-.3-.72-.46-1.49-.46-2.27s.16-1.55.46-2.27c.3-.72.75-1.37,1.31-1.91.54-.57,1.19-1.02,1.91-1.32.72-.31,1.49-.47,2.27-.47.78-.02,1.56.13,2.28.44.72.31,1.37.77,1.89,1.35,1.08,1.12,1.69,2.62,1.69,4.19s-.6,3.06-1.69,4.19c-.53.58-1.17,1.04-1.89,1.35-.72.31-1.5.46-2.28.44-1.57-.05-3.06-.7-4.18-1.8Zm-.57,5.47c3.33.48,6.71.48,10.04,0v36.42h-10l-.04-36.42Z"/>
  </g>
</svg>